<svg id="Layer_2" data-name="Layer 2" xmlns="http://www.w3.org/2000/svg" viewBox="0 0 524.45 479.08"><defs><style>.cls-1{opacity:0.01;}.cls-2,.cls-4{fill:none;stroke:#38a3cf;stroke-miterlimit:10;}.cls-2{stroke-width:5px;}.cls-3{fill:#38a3cf;}.cls-4{stroke-width:3px;}</style></defs><g class="cls-1"><path class="cls-2" d="M1886.59,414.75a171.81,171.81,0,0,1-37.87,22.16l24.72,58.36c76.69-32.54,132.56-104.6,142-190.64" transform="translate(-1519.37 -39.11)"/><path class="cls-2" d="M1653.31,81.48a235.18,235.18,0,0,0-105.43,170.94" transform="translate(-1519.37 -39.11)"/><path class="cls-2" d="M2012.67,234.07A235.55,235.55,0,0,0,1893.44,71.61" transform="translate(-1519.37 -39.11)"/><circle class="cls-3" cx="497.51" cy="239.51" r="15.36"/><circle class="cls-4" cx="497.51" cy="239.51" r="25.44"/><circle class="cls-3" cx="27.07" cy="239.51" r="15.36"/><circle class="cls-4" cx="26.94" cy="239.51" r="25.44"/><circle class="cls-3" cx="170.38" cy="22.93" r="13.63"/><circle class="cls-4" cx="170.38" cy="22.93" r="21.43"/><circle class="cls-3" cx="354.2" cy="22.93" r="13.63"/><circle class="cls-4" cx="354.2" cy="22.93" r="21.43"/><circle class="cls-3" cx="170.36" cy="456.15" r="13.63"/><circle class="cls-4" cx="170.36" cy="456.15" r="21.43"/><circle class="cls-3" cx="381.27" cy="363.53" r="11.51"/><circle class="cls-4" cx="381.27" cy="363.53" r="17.84"/><circle class="cls-3" cx="96.71" cy="406.58" r="9.13"/><circle class="cls-4" cx="96.71" cy="406.58" r="14.35"/><line class="cls-2" x1="52.51" y1="239.51" x2="90.43" y2="239.51"/><line class="cls-2" x1="472.07" y1="239.51" x2="434.1" y2="239.51"/><path class="cls-2" d="M1848.22,435.74" transform="translate(-1519.37 -39.11)"/><path class="cls-2" d="M1551.29,326.37a232.7,232.7,0,0,0,13.32,43.05L1623.08,345a172.4,172.4,0,0,0,91.41,91.9l-16.64,39.21" transform="translate(-1519.37 -39.11)"/><line class="cls-2" x1="142.07" y1="360.82" x2="117.29" y2="385.82"/></g><circle class="cls-3" cx="262.29" cy="239.51" r="13.7"/><path class="cls-3" d="M1733,267.34a49.95,49.95,0,0,1,97.32,0,12,12,0,0,1,3.81-.63,11.71,11.71,0,0,1,1.19.06,55,55,0,0,0-107.32,0,11.76,11.76,0,0,1,1.2-.06A12,12,0,0,1,1733,267.34Z" transform="translate(-1519.37 -39.11)"/><path class="cls-3" d="M1830.32,289.91a49.95,49.95,0,0,1-97.32,0,12,12,0,0,1-3.8.63,11.76,11.76,0,0,1-1.2-.06,55,55,0,0,0,107.32,0,11.71,11.71,0,0,1-1.19.06A12,12,0,0,1,1830.32,289.91Z" transform="translate(-1519.37 -39.11)"/><circle class="cls-3" cx="209.83" cy="239.51" r="5"/><circle class="cls-3" cx="314.76" cy="239.51" r="5"/><path class="cls-2" d="M1781.66,278.63" transform="translate(-1519.37 -39.11)"/><path class="cls-2" d="M1781.66,278.63" transform="translate(-1519.37 -39.11)"/></svg>